<mxfile host="app.diagrams.net" modified="2021-05-06T05:09:37.334Z" agent="5.0 (Windows NT 10.0; Win64; x64) AppleWebKit/537.36 (KHTML, like Gecko) Chrome/90.0.4430.93 Safari/537.36" etag="Tka_dGGPlhIQOo8VQwHS" version="14.6.10" type="github">
  <diagram id="_RIBO-fJprZOsPOY89LC" name="第 1 页">
    <mxGraphModel dx="1662" dy="1969" grid="1" gridSize="10" guides="1" tooltips="1" connect="1" arrows="1" fold="1" page="1" pageScale="1" pageWidth="827" pageHeight="1169" math="0" shadow="0">
      <root>
        <mxCell id="0" />
        <mxCell id="1" parent="0" />
        <mxCell id="-XsvuwcFGszycB6qShC--58" style="edgeStyle=orthogonalEdgeStyle;rounded=0;orthogonalLoop=1;jettySize=auto;html=1;exitX=0.5;exitY=1;exitDx=0;exitDy=0;entryX=0.5;entryY=0;entryDx=0;entryDy=0;" edge="1" parent="1" source="-XsvuwcFGszycB6qShC--1" target="-XsvuwcFGszycB6qShC--56">
          <mxGeometry relative="1" as="geometry" />
        </mxCell>
        <mxCell id="-XsvuwcFGszycB6qShC--1" value="开始" style="rounded=1;whiteSpace=wrap;html=1;" vertex="1" parent="1">
          <mxGeometry x="370" y="-80" width="120" height="60" as="geometry" />
        </mxCell>
        <mxCell id="-XsvuwcFGszycB6qShC--8" value="" style="edgeStyle=orthogonalEdgeStyle;rounded=0;orthogonalLoop=1;jettySize=auto;html=1;" edge="1" parent="1" source="-XsvuwcFGszycB6qShC--3">
          <mxGeometry relative="1" as="geometry">
            <mxPoint x="430" y="450" as="targetPoint" />
          </mxGeometry>
        </mxCell>
        <mxCell id="-XsvuwcFGszycB6qShC--99" style="edgeStyle=orthogonalEdgeStyle;rounded=0;orthogonalLoop=1;jettySize=auto;html=1;exitX=0;exitY=0.5;exitDx=0;exitDy=0;entryX=0;entryY=0.5;entryDx=0;entryDy=0;" edge="1" parent="1" source="-XsvuwcFGszycB6qShC--3" target="-XsvuwcFGszycB6qShC--56">
          <mxGeometry relative="1" as="geometry">
            <Array as="points">
              <mxPoint x="310" y="330" />
              <mxPoint x="310" y="70" />
            </Array>
          </mxGeometry>
        </mxCell>
        <mxCell id="-XsvuwcFGszycB6qShC--3" value="判断用户是否存在" style="rhombus;whiteSpace=wrap;html=1;" vertex="1" parent="1">
          <mxGeometry x="365" y="270" width="130" height="120" as="geometry" />
        </mxCell>
        <mxCell id="-XsvuwcFGszycB6qShC--13" value="" style="edgeStyle=orthogonalEdgeStyle;rounded=0;orthogonalLoop=1;jettySize=auto;html=1;entryX=0.5;entryY=0;entryDx=0;entryDy=0;" edge="1" parent="1" source="-XsvuwcFGszycB6qShC--11" target="-XsvuwcFGszycB6qShC--15">
          <mxGeometry relative="1" as="geometry">
            <mxPoint x="430" y="570" as="targetPoint" />
          </mxGeometry>
        </mxCell>
        <mxCell id="-XsvuwcFGszycB6qShC--67" value="" style="edgeStyle=orthogonalEdgeStyle;rounded=0;orthogonalLoop=1;jettySize=auto;html=1;" edge="1" parent="1" source="-XsvuwcFGszycB6qShC--11" target="-XsvuwcFGszycB6qShC--66">
          <mxGeometry relative="1" as="geometry" />
        </mxCell>
        <mxCell id="-XsvuwcFGszycB6qShC--100" style="edgeStyle=orthogonalEdgeStyle;rounded=0;orthogonalLoop=1;jettySize=auto;html=1;exitX=0;exitY=0.5;exitDx=0;exitDy=0;entryX=0;entryY=0.5;entryDx=0;entryDy=0;" edge="1" parent="1" source="-XsvuwcFGszycB6qShC--11" target="-XsvuwcFGszycB6qShC--56">
          <mxGeometry relative="1" as="geometry">
            <Array as="points">
              <mxPoint x="270" y="490" />
              <mxPoint x="270" y="70" />
            </Array>
          </mxGeometry>
        </mxCell>
        <mxCell id="-XsvuwcFGszycB6qShC--11" value="判断账号密码是否正确" style="rhombus;whiteSpace=wrap;html=1;" vertex="1" parent="1">
          <mxGeometry x="345" y="450" width="170" height="80" as="geometry" />
        </mxCell>
        <mxCell id="-XsvuwcFGszycB6qShC--17" value="" style="edgeStyle=orthogonalEdgeStyle;rounded=0;orthogonalLoop=1;jettySize=auto;html=1;" edge="1" parent="1" source="-XsvuwcFGszycB6qShC--15" target="-XsvuwcFGszycB6qShC--16">
          <mxGeometry relative="1" as="geometry" />
        </mxCell>
        <mxCell id="-XsvuwcFGszycB6qShC--25" style="edgeStyle=orthogonalEdgeStyle;rounded=0;orthogonalLoop=1;jettySize=auto;html=1;exitX=1;exitY=0.5;exitDx=0;exitDy=0;" edge="1" parent="1" source="-XsvuwcFGszycB6qShC--15">
          <mxGeometry relative="1" as="geometry">
            <mxPoint x="640" y="660" as="targetPoint" />
          </mxGeometry>
        </mxCell>
        <mxCell id="-XsvuwcFGszycB6qShC--15" value="判断用户是否是社团管理员" style="rhombus;whiteSpace=wrap;html=1;" vertex="1" parent="1">
          <mxGeometry x="345" y="620" width="170" height="80" as="geometry" />
        </mxCell>
        <mxCell id="-XsvuwcFGszycB6qShC--19" value="" style="edgeStyle=orthogonalEdgeStyle;rounded=0;orthogonalLoop=1;jettySize=auto;html=1;" edge="1" parent="1" source="-XsvuwcFGszycB6qShC--16" target="-XsvuwcFGszycB6qShC--18">
          <mxGeometry relative="1" as="geometry" />
        </mxCell>
        <mxCell id="-XsvuwcFGszycB6qShC--26" style="edgeStyle=orthogonalEdgeStyle;rounded=0;orthogonalLoop=1;jettySize=auto;html=1;exitX=1;exitY=0.5;exitDx=0;exitDy=0;" edge="1" parent="1" source="-XsvuwcFGszycB6qShC--16">
          <mxGeometry relative="1" as="geometry">
            <mxPoint x="640" y="800" as="targetPoint" />
          </mxGeometry>
        </mxCell>
        <mxCell id="-XsvuwcFGszycB6qShC--16" value="判断用户是否是班级管理员" style="rhombus;whiteSpace=wrap;html=1;" vertex="1" parent="1">
          <mxGeometry x="345" y="760" width="170" height="80" as="geometry" />
        </mxCell>
        <mxCell id="-XsvuwcFGszycB6qShC--21" value="" style="edgeStyle=orthogonalEdgeStyle;rounded=0;orthogonalLoop=1;jettySize=auto;html=1;" edge="1" parent="1" source="-XsvuwcFGszycB6qShC--18">
          <mxGeometry relative="1" as="geometry">
            <mxPoint x="430" y="1080" as="targetPoint" />
          </mxGeometry>
        </mxCell>
        <mxCell id="-XsvuwcFGszycB6qShC--27" style="edgeStyle=orthogonalEdgeStyle;rounded=0;orthogonalLoop=1;jettySize=auto;html=1;exitX=1;exitY=0.5;exitDx=0;exitDy=0;" edge="1" parent="1" source="-XsvuwcFGszycB6qShC--18">
          <mxGeometry relative="1" as="geometry">
            <mxPoint x="640" y="960" as="targetPoint" />
          </mxGeometry>
        </mxCell>
        <mxCell id="-XsvuwcFGszycB6qShC--18" value="判断用户是否是班级团支书" style="rhombus;whiteSpace=wrap;html=1;" vertex="1" parent="1">
          <mxGeometry x="345" y="920" width="170" height="80" as="geometry" />
        </mxCell>
        <mxCell id="-XsvuwcFGszycB6qShC--28" style="edgeStyle=orthogonalEdgeStyle;rounded=0;orthogonalLoop=1;jettySize=auto;html=1;exitX=1;exitY=0.5;exitDx=0;exitDy=0;" edge="1" parent="1">
          <mxGeometry relative="1" as="geometry">
            <mxPoint x="640" y="1120" as="targetPoint" />
            <mxPoint x="515" y="1120" as="sourcePoint" />
          </mxGeometry>
        </mxCell>
        <mxCell id="-XsvuwcFGszycB6qShC--22" value="判断用户是否是社团创始人" style="rhombus;whiteSpace=wrap;html=1;" vertex="1" parent="1">
          <mxGeometry x="345" y="1080" width="170" height="80" as="geometry" />
        </mxCell>
        <mxCell id="-XsvuwcFGszycB6qShC--36" value="是" style="text;html=1;align=center;verticalAlign=middle;resizable=0;points=[];autosize=1;strokeColor=none;" vertex="1" parent="1">
          <mxGeometry x="535" y="640" width="30" height="20" as="geometry" />
        </mxCell>
        <mxCell id="-XsvuwcFGszycB6qShC--37" value="是" style="text;html=1;align=center;verticalAlign=middle;resizable=0;points=[];autosize=1;strokeColor=none;" vertex="1" parent="1">
          <mxGeometry x="545" y="770" width="30" height="20" as="geometry" />
        </mxCell>
        <mxCell id="-XsvuwcFGszycB6qShC--38" value="是" style="text;html=1;align=center;verticalAlign=middle;resizable=0;points=[];autosize=1;strokeColor=none;" vertex="1" parent="1">
          <mxGeometry x="535" y="940" width="30" height="20" as="geometry" />
        </mxCell>
        <mxCell id="-XsvuwcFGszycB6qShC--39" value="是" style="text;html=1;align=center;verticalAlign=middle;resizable=0;points=[];autosize=1;strokeColor=none;" vertex="1" parent="1">
          <mxGeometry x="555" y="1100" width="30" height="20" as="geometry" />
        </mxCell>
        <mxCell id="-XsvuwcFGszycB6qShC--79" value="" style="edgeStyle=orthogonalEdgeStyle;rounded=0;orthogonalLoop=1;jettySize=auto;html=1;" edge="1" parent="1" source="-XsvuwcFGszycB6qShC--41" target="-XsvuwcFGszycB6qShC--78">
          <mxGeometry relative="1" as="geometry" />
        </mxCell>
        <mxCell id="-XsvuwcFGszycB6qShC--41" value="拥有社团管理权限" style="rounded=0;whiteSpace=wrap;html=1;" vertex="1" parent="1">
          <mxGeometry x="640" y="630" width="120" height="60" as="geometry" />
        </mxCell>
        <mxCell id="-XsvuwcFGszycB6qShC--81" value="" style="edgeStyle=orthogonalEdgeStyle;rounded=0;orthogonalLoop=1;jettySize=auto;html=1;" edge="1" parent="1" source="-XsvuwcFGszycB6qShC--42" target="-XsvuwcFGszycB6qShC--80">
          <mxGeometry relative="1" as="geometry" />
        </mxCell>
        <mxCell id="-XsvuwcFGszycB6qShC--42" value="拥有班级管理权限" style="rounded=0;whiteSpace=wrap;html=1;" vertex="1" parent="1">
          <mxGeometry x="640" y="770" width="120" height="60" as="geometry" />
        </mxCell>
        <mxCell id="-XsvuwcFGszycB6qShC--83" value="" style="edgeStyle=orthogonalEdgeStyle;rounded=0;orthogonalLoop=1;jettySize=auto;html=1;" edge="1" parent="1" source="-XsvuwcFGszycB6qShC--43" target="-XsvuwcFGszycB6qShC--82">
          <mxGeometry relative="1" as="geometry" />
        </mxCell>
        <mxCell id="-XsvuwcFGszycB6qShC--43" value="具有管理班级的权限和管理管理员的权限" style="rounded=0;whiteSpace=wrap;html=1;" vertex="1" parent="1">
          <mxGeometry x="640" y="930" width="120" height="60" as="geometry" />
        </mxCell>
        <mxCell id="-XsvuwcFGszycB6qShC--85" value="" style="edgeStyle=orthogonalEdgeStyle;rounded=0;orthogonalLoop=1;jettySize=auto;html=1;" edge="1" parent="1" source="-XsvuwcFGszycB6qShC--44" target="-XsvuwcFGszycB6qShC--84">
          <mxGeometry relative="1" as="geometry" />
        </mxCell>
        <mxCell id="-XsvuwcFGszycB6qShC--44" value="具有管理社团的权限和管理管理员的权限" style="rounded=0;whiteSpace=wrap;html=1;" vertex="1" parent="1">
          <mxGeometry x="640" y="1090" width="120" height="60" as="geometry" />
        </mxCell>
        <mxCell id="-XsvuwcFGszycB6qShC--46" value="否" style="text;html=1;align=center;verticalAlign=middle;resizable=0;points=[];autosize=1;strokeColor=none;" vertex="1" parent="1">
          <mxGeometry x="330" y="310" width="30" height="20" as="geometry" />
        </mxCell>
        <mxCell id="-XsvuwcFGszycB6qShC--47" value="否" style="text;html=1;align=center;verticalAlign=middle;resizable=0;points=[];autosize=1;strokeColor=none;" vertex="1" parent="1">
          <mxGeometry x="300" y="470" width="30" height="20" as="geometry" />
        </mxCell>
        <mxCell id="-XsvuwcFGszycB6qShC--48" value="是" style="text;html=1;align=center;verticalAlign=middle;resizable=0;points=[];autosize=1;strokeColor=none;" vertex="1" parent="1">
          <mxGeometry x="425" y="410" width="30" height="20" as="geometry" />
        </mxCell>
        <mxCell id="-XsvuwcFGszycB6qShC--50" value="否" style="text;html=1;align=center;verticalAlign=middle;resizable=0;points=[];autosize=1;strokeColor=none;" vertex="1" parent="1">
          <mxGeometry x="430" y="564.5" width="30" height="20" as="geometry" />
        </mxCell>
        <mxCell id="-XsvuwcFGszycB6qShC--51" value="否" style="text;html=1;align=center;verticalAlign=middle;resizable=0;points=[];autosize=1;strokeColor=none;" vertex="1" parent="1">
          <mxGeometry x="425" y="700" width="30" height="20" as="geometry" />
        </mxCell>
        <mxCell id="-XsvuwcFGszycB6qShC--52" value="否" style="text;html=1;align=center;verticalAlign=middle;resizable=0;points=[];autosize=1;strokeColor=none;" vertex="1" parent="1">
          <mxGeometry x="425" y="880" width="30" height="20" as="geometry" />
        </mxCell>
        <mxCell id="-XsvuwcFGszycB6qShC--53" value="否" style="text;html=1;align=center;verticalAlign=middle;resizable=0;points=[];autosize=1;strokeColor=none;" vertex="1" parent="1">
          <mxGeometry x="425" y="1030" width="30" height="20" as="geometry" />
        </mxCell>
        <mxCell id="-XsvuwcFGszycB6qShC--61" value="" style="edgeStyle=orthogonalEdgeStyle;rounded=0;orthogonalLoop=1;jettySize=auto;html=1;" edge="1" parent="1" source="-XsvuwcFGszycB6qShC--56" target="-XsvuwcFGszycB6qShC--60">
          <mxGeometry relative="1" as="geometry" />
        </mxCell>
        <mxCell id="-XsvuwcFGszycB6qShC--64" value="" style="edgeStyle=orthogonalEdgeStyle;rounded=0;orthogonalLoop=1;jettySize=auto;html=1;" edge="1" parent="1" source="-XsvuwcFGszycB6qShC--56" target="-XsvuwcFGszycB6qShC--63">
          <mxGeometry relative="1" as="geometry" />
        </mxCell>
        <mxCell id="-XsvuwcFGszycB6qShC--56" value="是否是已经登录" style="rhombus;whiteSpace=wrap;html=1;rounded=0;" vertex="1" parent="1">
          <mxGeometry x="360" y="30" width="140" height="80" as="geometry" />
        </mxCell>
        <mxCell id="-XsvuwcFGszycB6qShC--62" value="" style="edgeStyle=orthogonalEdgeStyle;rounded=0;orthogonalLoop=1;jettySize=auto;html=1;" edge="1" parent="1" source="-XsvuwcFGszycB6qShC--60" target="-XsvuwcFGszycB6qShC--3">
          <mxGeometry relative="1" as="geometry" />
        </mxCell>
        <mxCell id="-XsvuwcFGszycB6qShC--60" value="输入用户名和密码" style="rounded=0;whiteSpace=wrap;html=1;" vertex="1" parent="1">
          <mxGeometry x="370" y="160" width="120" height="60" as="geometry" />
        </mxCell>
        <mxCell id="-XsvuwcFGszycB6qShC--69" value="" style="edgeStyle=orthogonalEdgeStyle;rounded=0;orthogonalLoop=1;jettySize=auto;html=1;" edge="1" parent="1" source="-XsvuwcFGszycB6qShC--63" target="-XsvuwcFGszycB6qShC--68">
          <mxGeometry relative="1" as="geometry" />
        </mxCell>
        <mxCell id="-XsvuwcFGszycB6qShC--63" value="普通权限" style="whiteSpace=wrap;html=1;rounded=0;" vertex="1" parent="1">
          <mxGeometry x="640" y="40" width="120" height="60" as="geometry" />
        </mxCell>
        <mxCell id="-XsvuwcFGszycB6qShC--65" value="否" style="text;html=1;align=center;verticalAlign=middle;resizable=0;points=[];autosize=1;strokeColor=none;" vertex="1" parent="1">
          <mxGeometry x="535" y="50" width="30" height="20" as="geometry" />
        </mxCell>
        <mxCell id="-XsvuwcFGszycB6qShC--94" style="edgeStyle=orthogonalEdgeStyle;rounded=0;orthogonalLoop=1;jettySize=auto;html=1;exitX=1;exitY=0.5;exitDx=0;exitDy=0;entryX=0.192;entryY=0.494;entryDx=0;entryDy=0;entryPerimeter=0;" edge="1" parent="1" source="-XsvuwcFGszycB6qShC--66" target="-XsvuwcFGszycB6qShC--73">
          <mxGeometry relative="1" as="geometry">
            <Array as="points">
              <mxPoint x="1125" y="490" />
            </Array>
          </mxGeometry>
        </mxCell>
        <mxCell id="-XsvuwcFGszycB6qShC--98" style="edgeStyle=orthogonalEdgeStyle;rounded=0;orthogonalLoop=1;jettySize=auto;html=1;exitX=1;exitY=0.5;exitDx=0;exitDy=0;" edge="1" parent="1" source="-XsvuwcFGszycB6qShC--66">
          <mxGeometry relative="1" as="geometry">
            <mxPoint x="1280" y="490" as="targetPoint" />
          </mxGeometry>
        </mxCell>
        <mxCell id="-XsvuwcFGszycB6qShC--66" value="拥有一定权限" style="whiteSpace=wrap;html=1;" vertex="1" parent="1">
          <mxGeometry x="640" y="460" width="120" height="60" as="geometry" />
        </mxCell>
        <mxCell id="-XsvuwcFGszycB6qShC--68" value="浏览权限" style="whiteSpace=wrap;html=1;rounded=0;" vertex="1" parent="1">
          <mxGeometry x="1500" y="782.5" width="120" height="60" as="geometry" />
        </mxCell>
        <mxCell id="-XsvuwcFGszycB6qShC--73" value="" style="strokeWidth=2;html=1;shape=mxgraph.flowchart.annotation_2;align=left;labelPosition=right;pointerEvents=1;" vertex="1" parent="1">
          <mxGeometry x="1100" y="810" width="130" height="160" as="geometry" />
        </mxCell>
        <mxCell id="-XsvuwcFGszycB6qShC--75" value="发布问题" style="rounded=0;whiteSpace=wrap;html=1;" vertex="1" parent="1">
          <mxGeometry x="1230" y="780" width="80" height="60" as="geometry" />
        </mxCell>
        <mxCell id="-XsvuwcFGszycB6qShC--76" value="发布经验帖子" style="rounded=0;whiteSpace=wrap;html=1;" vertex="1" parent="1">
          <mxGeometry x="1230" y="860" width="80" height="60" as="geometry" />
        </mxCell>
        <mxCell id="-XsvuwcFGszycB6qShC--77" value="点赞，评论，收藏，转发" style="rounded=0;whiteSpace=wrap;html=1;" vertex="1" parent="1">
          <mxGeometry x="1230" y="940" width="80" height="60" as="geometry" />
        </mxCell>
        <mxCell id="-XsvuwcFGszycB6qShC--78" value="发布社团活动" style="whiteSpace=wrap;html=1;rounded=0;" vertex="1" parent="1">
          <mxGeometry x="930" y="630" width="120" height="60" as="geometry" />
        </mxCell>
        <mxCell id="-XsvuwcFGszycB6qShC--80" value="发布班级信息" style="whiteSpace=wrap;html=1;rounded=0;" vertex="1" parent="1">
          <mxGeometry x="930" y="770" width="120" height="60" as="geometry" />
        </mxCell>
        <mxCell id="-XsvuwcFGszycB6qShC--82" value="管理班级用户和发布信息" style="whiteSpace=wrap;html=1;rounded=0;" vertex="1" parent="1">
          <mxGeometry x="930" y="930" width="120" height="60" as="geometry" />
        </mxCell>
        <mxCell id="-XsvuwcFGszycB6qShC--97" style="edgeStyle=orthogonalEdgeStyle;rounded=0;orthogonalLoop=1;jettySize=auto;html=1;exitX=1;exitY=0.5;exitDx=0;exitDy=0;" edge="1" parent="1" source="-XsvuwcFGszycB6qShC--84">
          <mxGeometry relative="1" as="geometry">
            <mxPoint x="1280" y="1120" as="targetPoint" />
          </mxGeometry>
        </mxCell>
        <mxCell id="-XsvuwcFGszycB6qShC--84" value="&lt;span&gt;管理社团用户和发布信息&lt;/span&gt;" style="whiteSpace=wrap;html=1;rounded=0;" vertex="1" parent="1">
          <mxGeometry x="930" y="1090" width="120" height="60" as="geometry" />
        </mxCell>
        <mxCell id="-XsvuwcFGszycB6qShC--95" style="edgeStyle=orthogonalEdgeStyle;rounded=0;orthogonalLoop=1;jettySize=auto;html=1;exitX=0.1;exitY=0.5;exitDx=0;exitDy=0;exitPerimeter=0;entryX=0;entryY=0.5;entryDx=0;entryDy=0;entryPerimeter=0;" edge="1" parent="1" source="-XsvuwcFGszycB6qShC--93" target="-XsvuwcFGszycB6qShC--73">
          <mxGeometry relative="1" as="geometry" />
        </mxCell>
        <mxCell id="-XsvuwcFGszycB6qShC--93" value="" style="shape=curlyBracket;whiteSpace=wrap;html=1;rounded=1;flipH=1;" vertex="1" parent="1">
          <mxGeometry x="1050" y="660" width="20" height="460" as="geometry" />
        </mxCell>
        <mxCell id="-XsvuwcFGszycB6qShC--96" value="" style="shape=curlyBracket;whiteSpace=wrap;html=1;rounded=1;flipH=1;" vertex="1" parent="1">
          <mxGeometry x="1290" y="490" width="210" height="630" as="geometry" />
        </mxCell>
      </root>
    </mxGraphModel>
  </diagram>
</mxfile>
